<svg id="Capa_1" enable-background="new 0 0 497 497" height="512" viewBox="0 0 497 497" width="512" xmlns="http://www.w3.org/2000/svg"><g><g><path d="m459.372 416.208 33.774 35.316c5.984 6.205 4.88 17.153-2.482 24.619-7.607 7.715-18.937 8.736-25.053 2.259l-33.111-35.449z" fill="#5f6c75"/></g><path d="m467 96.166v271.5c0 16.57-13.43 30-30 30h-407c-16.57 0-30-13.43-30-30v-271.5h238.5z" fill="#f9f8f8"/><path d="m467 96.166v30h-467v-30h238.5z" fill="#ede8e5"/><path d="m50 397.666h-20c-16.57 0-30-13.43-30-30v-271.5l20 10v261.5c0 16.57 13.43 30 30 30z" fill="#ede8e5"/><path d="m467 44.334v61.5h-467v-61.5c0-16.57 13.43-30 30-30h407c16.57 0 30 13.43 30 30z" fill="#5f6c75"/><g><path d="m157.017 292.793c-3.658 0-7.317-1.395-10.108-4.187l-39.072-39.072c-5.583-5.582-5.583-14.633 0-20.215l38.595-38.595c5.582-5.583 14.633-5.583 20.215 0 5.583 5.582 5.583 14.633 0 20.215l-26.366 26.366c-1.172 1.172-1.172 3.071 0 4.243l26.843 26.843c5.583 5.582 5.583 14.633 0 20.215-2.79 2.792-6.449 4.187-10.107 4.187z" fill="#f7f06d"/></g><g><path d="m167.02 288.706c-2.78 2.72-6.38 4.09-10 4.09-3.66 0-7.32-1.4-10.11-4.19l-39.07-39.07c-5.59-5.58-5.59-14.63 0-20.22l38.59-38.59c5.54-5.54 14.52-5.58 20.11-.11-.04.04-.07.07-.11.11l-38.59 38.59c-5.59 5.59-5.59 14.64 0 20.22l39.07 39.07c.04.04.07.07.11.1z" fill="#ed5"/></g><g><path d="m319.983 292.793c-3.658 0-7.317-1.395-10.108-4.187-5.583-5.582-5.583-14.633 0-20.215l28.964-28.964-28.488-28.488c-5.583-5.582-5.583-14.633 0-20.215 5.582-5.583 14.633-5.583 20.215 0l38.595 38.595c5.583 5.582 5.583 14.633 0 20.215l-39.072 39.072c-2.789 2.792-6.448 4.187-10.106 4.187z" fill="#f7f06d"/></g><g><path d="m356.783 237.333c1.143 1.163 1.148 3.027.01 4.196l-46.353 47.617c-.19-.18-.38-.36-.56-.54-5.59-5.58-5.59-14.63 0-20.21l26.839-26.849c1.171-1.172 1.171-3.071 0-4.242l-26.602-26.602c-5.532-5.532-5.361-14.41.184-19.929.13-.129.243-.245.368-.348z" fill="#ed5"/></g><g><path d="m214.193 310.665c-1.879 0-3.789-.373-5.625-1.16-7.256-3.11-10.618-11.513-7.507-18.77l48.601-113.403c3.11-7.257 11.514-10.616 18.77-7.508 7.256 3.11 10.618 11.513 7.507 18.77l-48.601 113.403c-2.323 5.421-7.6 8.668-13.145 8.668z" fill="#f7f06d"/></g><g><path d="m270.31 170.796c-2.43 1.49-4.44 3.72-5.65 6.54l-48.6 113.4c-2.83 6.6-.3 14.15 5.64 17.8-2.25 1.38-4.85 2.13-7.51 2.13-1.88 0-3.79-.37-5.62-1.16-7.26-3.11-10.62-11.51-7.51-18.77l48.6-113.4c3.11-7.26 11.52-10.62 18.77-7.51.66.28 1.29.61 1.88.97z" fill="#ed5"/></g><path d="m327.657 382.627c0-8.322 1.416-16.312 4.019-23.74 9.74-27.797 36.104-47.721 67.098-47.721 39.277 0 71.117 31.994 71.117 71.461s-31.84 71.461-71.117 71.461-71.117-31.994-71.117-71.461z" fill="#5f6c75"/><path d="m356.665 382.627c0-4.928.838-9.659 2.379-14.057 5.767-16.459 21.378-28.256 39.73-28.256 23.256 0 42.109 18.944 42.109 42.313s-18.853 42.313-42.109 42.313-42.109-18.944-42.109-42.313z" fill="#c5d8fc"/><path d="m435.02 404.166c-7.33 12.44-20.82 20.77-36.25 20.77-23.25 0-42.11-18.94-42.11-42.31 0-4.93.84-9.66 2.38-14.06 3.33-9.5 9.94-17.44 18.47-22.45-1.39 2.35-2.56 4.84-3.47 7.45-1.54 4.4-2.38 9.13-2.38 14.06 0 23.37 18.86 42.31 42.11 42.31 7.75 0 15.02-2.1 21.25-5.77z" fill="#aac7fa"/><g fill="#4e5a61"><path d="m227.288 89.166c-8.268 0-14.971-6.716-14.971-15s6.703-15 14.971-15h179.597c8.268 0 14.971 6.716 14.971 15s-6.703 15-14.971 15z"/><ellipse cx="160.292" cy="74.166" rx="14.971" ry="15"/><path d="m170.8 84.85 12.895-12.869-13.16 1.179z"/><path d="m149.998 63.274 12.582-12.517-2.697 10.409z"/><ellipse cx="97.356" cy="74.166" rx="14.971" ry="15"/><path d="m107.891 84.823 12.402-12.499-12.694.836z"/><path d="m87.062 63.274 12.391-12.46-2.506 10.352z"/><ellipse cx="32.164" cy="74.166" rx="14.971" ry="15"/><path d="m43.004 84.512 12.741-13.186-13.16 1.38z"/><path d="m21.87 63.274 11.641-12.038-1.756 9.93z"/></g><ellipse cx="173.292" cy="61.166" fill="#aef2ab" rx="14.971" ry="15"/><path d="m217.027 63.243 12.992-12.992-3.03 14.276z" fill="#4e5a61"/><path d="m417.659 84.581 13.169-13.179-10.2 3.381z" fill="#4e5a61"/><ellipse cx="110.288" cy="61.166" fill="#f0c585" rx="14.971" ry="15"/><ellipse cx="44.732" cy="61.166" fill="#bf4a55" rx="14.971" ry="15"/><path d="m240.288 76.166c-8.268 0-14.971-6.716-14.971-15s6.703-15 14.971-15h179.597c8.268 0 14.971 6.716 14.971 15s-6.703 15-14.971 15z" fill="#f9f8f8"/></g></svg>