<?xml version="1.0" encoding="iso-8859-1"?>
<!-- Generator: Adobe Illustrator 19.0.0, SVG Export Plug-In . SVG Version: 6.00 Build 0)  -->
<svg version="1.1" id="Capa_1" xmlns="http://www.w3.org/2000/svg" xmlns:xlink="http://www.w3.org/1999/xlink" x="0px" y="0px"
	 viewBox="0 0 512 512" style="enable-background:new 0 0 512 512;" xml:space="preserve">
<polygon style="fill:#D3E3F9;" points="412.203,216.949 334.102,216.949 256,216.949 177.898,216.949 99.797,216.949 
	21.695,216.949 21.695,269.017 21.695,321.085 21.695,373.153 21.695,425.22 21.695,477.288 99.797,477.288 177.898,477.288 
	334.102,477.288 412.203,477.288 490.305,477.288 490.305,425.22 490.305,373.153 490.305,321.085 490.305,269.017 490.305,216.949 
	"/>
<rect x="256" y="8.678" style="fill:#DD352E;" width="60.746" height="43.39"/>
<rect x="316.746" y="26.034" style="fill:#BC2424;" width="52.068" height="43.39"/>
<rect x="256" y="269.017" style="fill:#9AACC1;" width="78.102" height="52.068"/>
<polygon style="fill:#A5A0AA;" points="351.458,477.288 4.339,477.288 4.339,512 351.458,512 507.661,512 507.661,477.288 "/>
<rect x="99.797" y="211.369" style="fill:#D3E3F9;" width="78.102" height="57.648"/>
<g>
	<rect x="21.695" y="211.369" style="fill:#9AACC1;" width="78.102" height="57.648"/>
	<rect x="177.898" y="211.369" style="fill:#9AACC1;" width="78.102" height="57.648"/>
</g>
<rect x="256" y="211.369" style="fill:#D3E3F9;" width="78.102" height="57.648"/>
<rect x="334.102" y="211.369" style="fill:#9AACC1;" width="78.102" height="57.648"/>
<rect x="412.203" y="211.369" style="fill:#D3E3F9;" width="78.102" height="57.648"/>
<g>
	<rect x="99.797" y="269.017" style="fill:#9AACC1;" width="78.102" height="52.068"/>
	<rect x="21.695" y="321.085" style="fill:#9AACC1;" width="78.102" height="52.068"/>
</g>
<g>
	<rect x="21.695" y="269.017" style="fill:#D3E3F9;" width="78.102" height="52.068"/>
	<rect x="99.797" y="321.085" style="fill:#D3E3F9;" width="78.102" height="52.068"/>
</g>
<g>
	<rect x="99.797" y="373.153" style="fill:#9AACC1;" width="78.102" height="52.068"/>
	<rect x="21.695" y="425.22" style="fill:#9AACC1;" width="78.102" height="52.068"/>
</g>
<g>
	<rect x="21.695" y="373.153" style="fill:#D3E3F9;" width="78.102" height="52.068"/>
	<rect x="99.797" y="425.22" style="fill:#D3E3F9;" width="78.102" height="52.068"/>
	<rect x="177.898" y="269.017" style="fill:#D3E3F9;" width="78.102" height="52.068"/>
	<rect x="334.102" y="269.017" style="fill:#D3E3F9;" width="78.102" height="52.068"/>
</g>
<g>
	<rect x="412.203" y="269.017" style="fill:#9AACC1;" width="78.102" height="52.068"/>
	<rect x="334.102" y="321.085" style="fill:#9AACC1;" width="78.102" height="52.068"/>
</g>
<g>
	<rect x="412.203" y="321.085" style="fill:#D3E3F9;" width="78.102" height="52.068"/>
	<rect x="334.102" y="373.153" style="fill:#D3E3F9;" width="78.102" height="52.068"/>
</g>
<g>
	<rect x="412.203" y="373.153" style="fill:#9AACC1;" width="78.102" height="52.068"/>
	<rect x="334.102" y="425.22" style="fill:#9AACC1;" width="78.102" height="52.068"/>
</g>
<rect x="412.203" y="425.22" style="fill:#D3E3F9;" width="78.102" height="52.068"/>
<rect x="177.898" y="321.085" style="fill:#7383BF;" width="156.203" height="156.203"/>
<g>
	<path style="fill:#556080;" d="M195.254,364.475h-17.356c-4.79,0-8.678-3.888-8.678-8.678s3.888-8.678,8.678-8.678h17.356
		c4.79,0,8.678,3.888,8.678,8.678S200.044,364.475,195.254,364.475z"/>
	<path style="fill:#556080;" d="M195.254,451.254h-17.356c-4.79,0-8.678-3.888-8.678-8.678s3.888-8.678,8.678-8.678h17.356
		c4.79,0,8.678,3.888,8.678,8.678S200.044,451.254,195.254,451.254z"/>
	<path style="fill:#556080;" d="M334.102,364.475h-17.356c-4.79,0-8.678-3.888-8.678-8.678s3.888-8.678,8.678-8.678h17.356
		c4.79,0,8.678,3.888,8.678,8.678S338.892,364.475,334.102,364.475z"/>
	<path style="fill:#556080;" d="M334.102,451.254h-17.356c-4.79,0-8.678-3.888-8.678-8.678s3.888-8.678,8.678-8.678h17.356
		c4.79,0,8.678,3.888,8.678,8.678S338.892,451.254,334.102,451.254z"/>
	<rect x="247.322" y="321.085" style="fill:#556080;" width="17.356" height="156.203"/>
	<path style="fill:#556080;" d="M221.288,416.542c-4.79,0-8.678-3.888-8.678-8.678v-17.356c0-4.79,3.888-8.678,8.678-8.678
		s8.678,3.888,8.678,8.678v17.356C229.966,412.655,226.078,416.542,221.288,416.542z"/>
	<path style="fill:#556080;" d="M290.712,416.542c-4.79,0-8.678-3.888-8.678-8.678v-17.356c0-4.79,3.888-8.678,8.678-8.678
		s8.678,3.888,8.678,8.678v17.356C299.39,412.655,295.502,416.542,290.712,416.542z"/>
</g>
<path style="fill:#7383BF;" d="M256,121.492c-4.79,0-8.678-3.888-8.678-8.678V8.678C247.322,3.888,251.21,0,256,0
	c4.79,0,8.678,3.888,8.678,8.678v104.136C264.678,117.604,260.79,121.492,256,121.492z"/>
<rect x="117.153" y="112.814" style="fill:#A5A0AA;" width="277.695" height="43.39"/>
<rect x="91.119" y="147.525" style="fill:#7D7782;" width="329.763" height="43.39"/>
<polygon style="fill:#A5A0AA;" points="351.458,182.237 4.339,182.237 4.339,216.949 351.458,216.949 507.661,216.949 
	507.661,182.237 "/>
<g>
</g>
<g>
</g>
<g>
</g>
<g>
</g>
<g>
</g>
<g>
</g>
<g>
</g>
<g>
</g>
<g>
</g>
<g>
</g>
<g>
</g>
<g>
</g>
<g>
</g>
<g>
</g>
<g>
</g>
</svg>
